<svg xmlns="http://www.w3.org/2000/svg" xmlns:xlink="http://www.w3.org/1999/xlink" width="500" zoomAndPan="magnify" viewBox="0 0 375 374.999991" height="500" preserveAspectRatio="xMidYMid meet" version="1.0"><defs><g/></defs><g fill="#000000" fill-opacity="1"><g transform="translate(43.152201, 221.255694)"><g><path d="M 88.96875 -41.125 C 88.96875 -35.414062 87.875 -30.039062 85.6875 -25 C 83.507812 -19.96875 80.546875 -15.578125 76.796875 -11.828125 C 73.046875 -8.085938 68.648438 -5.125 63.609375 -2.9375 C 58.578125 -0.757812 53.210938 0.328125 47.515625 0.328125 C 41.804688 0.328125 36.429688 -0.757812 31.390625 -2.9375 C 26.359375 -5.125 21.96875 -8.085938 18.21875 -11.828125 C 14.46875 -15.578125 11.5 -19.96875 9.3125 -25 C 7.132812 -30.039062 6.046875 -35.414062 6.046875 -41.125 C 6.046875 -46.832031 7.132812 -52.203125 9.3125 -57.234375 C 11.5 -62.273438 14.46875 -66.671875 18.21875 -70.421875 C 21.96875 -74.171875 26.359375 -77.132812 31.390625 -79.3125 C 36.429688 -81.5 41.804688 -82.59375 47.515625 -82.59375 C 53.210938 -82.59375 58.578125 -81.5 63.609375 -79.3125 C 68.648438 -77.132812 73.046875 -74.171875 76.796875 -70.421875 C 80.546875 -66.671875 83.507812 -62.273438 85.6875 -57.234375 C 87.875 -52.203125 88.96875 -46.832031 88.96875 -41.125 Z M 17.625 -43.140625 C 17.625 -38.554688 18.296875 -33.769531 19.640625 -28.78125 C 20.984375 -23.800781 23 -19.210938 25.6875 -15.015625 C 28.375 -10.828125 31.726562 -7.390625 35.75 -4.703125 C 39.78125 -2.015625 44.425781 -0.671875 49.6875 -0.671875 C 54.5 -0.671875 58.664062 -1.898438 62.1875 -4.359375 C 65.71875 -6.828125 68.65625 -9.960938 71 -13.765625 C 73.351562 -17.566406 75.085938 -21.734375 76.203125 -26.265625 C 77.328125 -30.804688 77.890625 -35.085938 77.890625 -39.109375 C 77.890625 -43.585938 77.191406 -48.316406 75.796875 -53.296875 C 74.398438 -58.273438 72.328125 -62.832031 69.578125 -66.96875 C 66.835938 -71.113281 63.453125 -74.53125 59.421875 -77.21875 C 55.398438 -79.90625 50.8125 -81.25 45.65625 -81.25 C 40.84375 -81.25 36.675781 -80.015625 33.15625 -77.546875 C 29.632812 -75.085938 26.722656 -71.984375 24.421875 -68.234375 C 22.128906 -64.492188 20.421875 -60.382812 19.296875 -55.90625 C 18.179688 -51.425781 17.625 -47.171875 17.625 -43.140625 Z M 17.625 -43.140625 "/></g></g></g><g fill="#000000" fill-opacity="1"><g transform="translate(119.209095, 221.255694)"><g><path d="M 21.984375 -10.75 C 21.984375 -8.507812 22.40625 -6.320312 23.25 -4.1875 C 24.09375 -2.0625 25.6875 -0.664062 28.03125 0 L 5.703125 0 C 8.171875 -0.664062 9.820312 -2.035156 10.65625 -4.109375 C 11.5 -6.179688 11.921875 -8.394531 11.921875 -10.75 L 11.921875 -72.015625 C 11.921875 -74.253906 11.472656 -76.320312 10.578125 -78.21875 C 9.679688 -80.125 8.054688 -81.472656 5.703125 -82.265625 C 11.191406 -82.265625 16.171875 -82.289062 20.640625 -82.34375 C 25.117188 -82.394531 29.425781 -82.644531 33.5625 -83.09375 C 37.707031 -83.539062 41.9375 -84.296875 46.25 -85.359375 C 50.5625 -86.421875 55.289062 -88.019531 60.4375 -90.15625 C 65.019531 -92.050781 69.578125 -94.117188 74.109375 -96.359375 C 78.648438 -98.597656 83.238281 -100.695312 87.875 -102.65625 C 92.519531 -104.613281 97.25 -106.265625 102.0625 -107.609375 C 106.875 -108.953125 111.859375 -109.625 117.015625 -109.625 C 123.503906 -109.625 129.628906 -108.164062 135.390625 -105.25 C 141.148438 -102.34375 146.492188 -98.875 151.421875 -94.84375 L 150.75 -94.015625 C 142.46875 -100.722656 133.007812 -104.078125 122.375 -104.078125 C 117.226562 -104.078125 112.21875 -103.570312 107.34375 -102.5625 C 102.476562 -101.5625 97.664062 -100.304688 92.90625 -98.796875 C 88.15625 -97.285156 83.457031 -95.632812 78.8125 -93.84375 C 74.164062 -92.050781 69.4375 -90.316406 64.625 -88.640625 C 57.582031 -86.171875 50.5625 -84.265625 43.5625 -82.921875 C 36.570312 -81.585938 29.378906 -80.921875 21.984375 -80.921875 L 21.984375 -42.46875 C 23.109375 -42.46875 24.226562 -42.4375 25.34375 -42.375 C 26.46875 -42.320312 27.644531 -42.296875 28.875 -42.296875 C 30.664062 -42.296875 32.457031 -42.40625 34.25 -42.625 C 36.039062 -42.851562 37.71875 -43.273438 39.28125 -43.890625 C 40.851562 -44.515625 42.222656 -45.410156 43.390625 -46.578125 C 44.566406 -47.753906 45.492188 -49.296875 46.171875 -51.203125 L 46.171875 -32.734375 C 45.160156 -35.640625 43.394531 -37.765625 40.875 -39.109375 C 38.351562 -40.453125 35.640625 -41.125 32.734375 -41.125 L 21.984375 -41.125 Z M 21.984375 -10.75 "/></g></g></g><g fill="#000000" fill-opacity="1"><g transform="translate(175.666217, 168.026694)"><g><path d="M 19.09375 -1.28125 C 18.226562 -0.75 17.285156 -0.332031 16.265625 -0.03125 C 15.242188 0.257812 14.332031 0.40625 13.53125 0.40625 C 11.90625 0.40625 10.351562 0.140625 8.875 -0.390625 C 6.851562 -1.117188 5.222656 -2.207031 3.984375 -3.65625 C 2.421875 -5.488281 1.640625 -7.816406 1.640625 -10.640625 C 1.640625 -12.671875 2.160156 -14.519531 3.203125 -16.1875 C 4.242188 -17.863281 5.6875 -19.1875 7.53125 -20.15625 C 9.375 -21.132812 11.351562 -21.625 13.46875 -21.625 C 15.59375 -21.625 17.492188 -21.148438 19.171875 -20.203125 C 20.847656 -19.265625 22.191406 -17.96875 23.203125 -16.3125 C 24.210938 -14.664062 24.71875 -12.882812 24.71875 -10.96875 C 24.71875 -9.050781 24.21875 -7.222656 23.21875 -5.484375 C 22.21875 -3.753906 20.84375 -2.351562 19.09375 -1.28125 Z M 4.765625 -11.109375 C 4.765625 -9.460938 5.128906 -7.828125 5.859375 -6.203125 C 6.585938 -4.578125 7.628906 -3.253906 8.984375 -2.234375 C 10.347656 -1.210938 11.925781 -0.703125 13.71875 -0.703125 C 16.257812 -0.703125 18.238281 -1.675781 19.65625 -3.625 C 20.9375 -5.375 21.578125 -7.613281 21.578125 -10.34375 C 21.578125 -13.082031 20.789062 -15.4375 19.21875 -17.40625 C 18.457031 -18.375 17.523438 -19.144531 16.421875 -19.71875 C 15.316406 -20.300781 14.195312 -20.59375 13.0625 -20.59375 C 11.9375 -20.59375 11.015625 -20.46875 10.296875 -20.21875 C 9.578125 -19.976562 8.925781 -19.640625 8.34375 -19.203125 C 7.757812 -18.773438 7.242188 -18.257812 6.796875 -17.65625 C 6.347656 -17.0625 5.972656 -16.421875 5.671875 -15.734375 C 5.066406 -14.296875 4.765625 -12.753906 4.765625 -11.109375 Z M 4.765625 -11.109375 "/></g></g></g><g fill="#000000" fill-opacity="1"><g transform="translate(205.161325, 168.026694)"><g><path d="M 11.234375 -1.3125 C 11.179688 -1.476562 11.113281 -1.535156 11.03125 -1.484375 C 10.957031 -1.429688 10.632812 -1.257812 10.0625 -0.96875 C 8.207031 -0.0390625 6.660156 0.421875 5.421875 0.421875 C 4.179688 0.421875 3.285156 0.0195312 2.734375 -0.78125 C 2.535156 -1.070312 2.4375 -1.4375 2.4375 -1.875 L 2.4375 -10.96875 C 2.40625 -11.25 2.28125 -11.492188 2.0625 -11.703125 C 1.75 -11.960938 1.425781 -12.101562 1.09375 -12.125 C 0.757812 -12.144531 0.59375 -12.242188 0.59375 -12.421875 C 0.59375 -12.609375 0.671875 -12.722656 0.828125 -12.765625 L 4.25 -13.75 C 4.363281 -13.789062 4.476562 -13.8125 4.59375 -13.8125 C 4.707031 -13.8125 4.765625 -13.722656 4.765625 -13.546875 L 4.765625 -3.5625 C 4.765625 -2.863281 5.070312 -2.328125 5.6875 -1.953125 C 6.300781 -1.578125 7.085938 -1.390625 8.046875 -1.390625 C 9.003906 -1.390625 9.867188 -1.679688 10.640625 -2.265625 C 10.867188 -2.453125 11.066406 -2.660156 11.234375 -2.890625 L 11.234375 -10.96875 C 11.203125 -11.25 11.070312 -11.492188 10.84375 -11.703125 C 10.53125 -11.960938 10.207031 -12.101562 9.875 -12.125 C 9.539062 -12.144531 9.375 -12.242188 9.375 -12.421875 C 9.375 -12.609375 9.457031 -12.722656 9.625 -12.765625 L 13.03125 -13.75 C 13.144531 -13.789062 13.257812 -13.8125 13.375 -13.8125 C 13.488281 -13.8125 13.546875 -13.707031 13.546875 -13.5 L 13.546875 -2.9375 C 13.597656 -2.5 13.722656 -2.1875 13.921875 -2 C 14.117188 -1.8125 14.441406 -1.71875 14.890625 -1.71875 L 15.75 -1.765625 C 15.8125 -1.765625 15.84375 -1.707031 15.84375 -1.59375 C 15.84375 -1.488281 15.769531 -1.398438 15.625 -1.328125 L 11.65625 0.3125 C 11.539062 0.375 11.441406 0.40625 11.359375 0.40625 C 11.273438 0.40625 11.234375 0.28125 11.234375 0.03125 Z M 11.234375 -1.3125 "/></g></g></g><g fill="#000000" fill-opacity="1"><g transform="translate(225.038292, 168.026694)"><g><path d="M 8.265625 -10.1875 C 8.265625 -9.96875 8.179688 -9.859375 8.015625 -9.859375 C 7.859375 -9.859375 7.734375 -9.976562 7.640625 -10.21875 C 7.398438 -10.875 7.046875 -11.453125 6.578125 -11.953125 C 6.109375 -12.460938 5.523438 -12.71875 4.828125 -12.71875 C 3.910156 -12.71875 3.296875 -12.257812 2.984375 -11.34375 C 2.878906 -11.039062 2.828125 -10.722656 2.828125 -10.390625 C 2.828125 -10.066406 3.035156 -9.703125 3.453125 -9.296875 C 3.867188 -8.898438 4.550781 -8.421875 5.5 -7.859375 C 6.457031 -7.304688 7.15625 -6.835938 7.59375 -6.453125 C 8.582031 -5.566406 9.078125 -4.539062 9.078125 -3.375 C 9.078125 -2.21875 8.648438 -1.296875 7.796875 -0.609375 C 6.941406 0.0664062 5.953125 0.40625 4.828125 0.40625 C 4.222656 0.40625 3.671875 0.320312 3.171875 0.15625 C 2.679688 -0.0078125 2.398438 -0.09375 2.328125 -0.09375 C 2.253906 -0.09375 2.132812 -0.0078125 1.96875 0.15625 C 1.8125 0.320312 1.679688 0.40625 1.578125 0.40625 L 1.328125 0.40625 C 1.265625 0.40625 1.1875 -0.128906 1.09375 -1.203125 C 1.007812 -2.273438 0.96875 -2.910156 0.96875 -3.109375 C 0.96875 -3.304688 0.984375 -3.414062 1.015625 -3.4375 C 1.054688 -3.457031 1.113281 -3.46875 1.1875 -3.46875 C 1.269531 -3.46875 1.335938 -3.441406 1.390625 -3.390625 C 1.441406 -3.347656 1.488281 -3.285156 1.53125 -3.203125 C 1.570312 -3.128906 1.601562 -3.050781 1.625 -2.96875 C 1.65625 -2.894531 1.71875 -2.75 1.8125 -2.53125 C 2.488281 -1.09375 3.53125 -0.375 4.9375 -0.375 C 5.5625 -0.375 6.0625 -0.601562 6.4375 -1.0625 C 6.820312 -1.519531 7.015625 -2.03125 7.015625 -2.59375 C 7.015625 -3.164062 6.863281 -3.644531 6.5625 -4.03125 C 6.269531 -4.414062 5.898438 -4.765625 5.453125 -5.078125 C 5.015625 -5.398438 4.535156 -5.710938 4.015625 -6.015625 C 2.015625 -7.191406 1.015625 -8.488281 1.015625 -9.90625 C 1.015625 -10.96875 1.46875 -11.882812 2.375 -12.65625 C 3.289062 -13.425781 4.226562 -13.8125 5.1875 -13.8125 C 6.15625 -13.8125 6.867188 -13.707031 7.328125 -13.5 C 7.796875 -13.289062 8.066406 -13.113281 8.140625 -12.96875 C 8.222656 -12.820312 8.265625 -12.351562 8.265625 -11.5625 Z M 8.265625 -10.1875 "/></g></g></g><g fill="#000000" fill-opacity="1"><g transform="translate(238.379093, 168.026694)"><g><path d="M 8.265625 -10.1875 C 8.265625 -9.96875 8.179688 -9.859375 8.015625 -9.859375 C 7.859375 -9.859375 7.734375 -9.976562 7.640625 -10.21875 C 7.398438 -10.875 7.046875 -11.453125 6.578125 -11.953125 C 6.109375 -12.460938 5.523438 -12.71875 4.828125 -12.71875 C 3.910156 -12.71875 3.296875 -12.257812 2.984375 -11.34375 C 2.878906 -11.039062 2.828125 -10.722656 2.828125 -10.390625 C 2.828125 -10.066406 3.035156 -9.703125 3.453125 -9.296875 C 3.867188 -8.898438 4.550781 -8.421875 5.5 -7.859375 C 6.457031 -7.304688 7.15625 -6.835938 7.59375 -6.453125 C 8.582031 -5.566406 9.078125 -4.539062 9.078125 -3.375 C 9.078125 -2.21875 8.648438 -1.296875 7.796875 -0.609375 C 6.941406 0.0664062 5.953125 0.40625 4.828125 0.40625 C 4.222656 0.40625 3.671875 0.320312 3.171875 0.15625 C 2.679688 -0.0078125 2.398438 -0.09375 2.328125 -0.09375 C 2.253906 -0.09375 2.132812 -0.0078125 1.96875 0.15625 C 1.8125 0.320312 1.679688 0.40625 1.578125 0.40625 L 1.328125 0.40625 C 1.265625 0.40625 1.1875 -0.128906 1.09375 -1.203125 C 1.007812 -2.273438 0.96875 -2.910156 0.96875 -3.109375 C 0.96875 -3.304688 0.984375 -3.414062 1.015625 -3.4375 C 1.054688 -3.457031 1.113281 -3.46875 1.1875 -3.46875 C 1.269531 -3.46875 1.335938 -3.441406 1.390625 -3.390625 C 1.441406 -3.347656 1.488281 -3.285156 1.53125 -3.203125 C 1.570312 -3.128906 1.601562 -3.050781 1.625 -2.96875 C 1.65625 -2.894531 1.71875 -2.75 1.8125 -2.53125 C 2.488281 -1.09375 3.53125 -0.375 4.9375 -0.375 C 5.5625 -0.375 6.0625 -0.601562 6.4375 -1.0625 C 6.820312 -1.519531 7.015625 -2.03125 7.015625 -2.59375 C 7.015625 -3.164062 6.863281 -3.644531 6.5625 -4.03125 C 6.269531 -4.414062 5.898438 -4.765625 5.453125 -5.078125 C 5.015625 -5.398438 4.535156 -5.710938 4.015625 -6.015625 C 2.015625 -7.191406 1.015625 -8.488281 1.015625 -9.90625 C 1.015625 -10.96875 1.46875 -11.882812 2.375 -12.65625 C 3.289062 -13.425781 4.226562 -13.8125 5.1875 -13.8125 C 6.15625 -13.8125 6.867188 -13.707031 7.328125 -13.5 C 7.796875 -13.289062 8.066406 -13.113281 8.140625 -12.96875 C 8.222656 -12.820312 8.265625 -12.351562 8.265625 -11.5625 Z M 8.265625 -10.1875 "/></g></g></g><g fill="#000000" fill-opacity="1"><g transform="translate(251.719893, 168.026694)"><g><path d="M 10.25 -2.453125 C 10.25 -2.191406 10.367188 -1.984375 10.609375 -1.828125 C 10.847656 -1.679688 11.125 -1.609375 11.4375 -1.609375 C 11.757812 -1.609375 12.023438 -1.6875 12.234375 -1.84375 C 12.453125 -2.007812 12.601562 -2.09375 12.6875 -2.09375 C 12.769531 -2.09375 12.8125 -1.984375 12.8125 -1.765625 C 12.8125 -1.554688 12.710938 -1.378906 12.515625 -1.234375 C 11.023438 -0.140625 10.015625 0.40625 9.484375 0.40625 C 8.847656 0.40625 8.332031 -0.253906 7.9375 -1.578125 C 7.90625 -1.679688 7.878906 -1.726562 7.859375 -1.71875 C 6.628906 -0.789062 5.859375 -0.234375 5.546875 -0.046875 C 4.722656 0.421875 3.898438 0.492188 3.078125 0.171875 C 2.265625 -0.140625 1.675781 -0.664062 1.3125 -1.40625 C 1.132812 -1.78125 1.046875 -2.179688 1.046875 -2.609375 C 1.046875 -3.453125 1.359375 -4.117188 1.984375 -4.609375 C 2.609375 -5.109375 3.800781 -5.585938 5.5625 -6.046875 C 6.15625 -6.203125 6.679688 -6.40625 7.140625 -6.65625 C 7.609375 -6.90625 7.851562 -7.0625 7.875 -7.125 C 7.90625 -7.195312 7.921875 -7.265625 7.921875 -7.328125 L 7.921875 -10.1875 C 7.921875 -11.3125 7.484375 -12.097656 6.609375 -12.546875 C 6.328125 -12.703125 5.984375 -12.78125 5.578125 -12.78125 C 5.171875 -12.78125 4.757812 -12.617188 4.34375 -12.296875 C 3.9375 -11.984375 3.734375 -11.535156 3.734375 -10.953125 L 3.8125 -10.359375 C 3.75 -10.242188 3.390625 -10.046875 2.734375 -9.765625 C 2.078125 -9.492188 1.703125 -9.347656 1.609375 -9.328125 C 1.453125 -9.328125 1.375 -9.515625 1.375 -9.890625 C 1.375 -10.273438 1.488281 -10.703125 1.71875 -11.171875 C 1.945312 -11.640625 2.269531 -12.066406 2.6875 -12.453125 C 3.65625 -13.359375 4.765625 -13.8125 6.015625 -13.8125 C 7.265625 -13.8125 8.28125 -13.460938 9.0625 -12.765625 C 9.851562 -12.078125 10.25 -11.257812 10.25 -10.3125 Z M 3.375 -2.890625 C 3.375 -2.410156 3.554688 -1.992188 3.921875 -1.640625 C 4.296875 -1.285156 4.71875 -1.109375 5.1875 -1.109375 C 5.65625 -1.109375 6.226562 -1.3125 6.90625 -1.71875 C 7.582031 -2.125 7.921875 -2.539062 7.921875 -2.96875 L 7.921875 -5.984375 C 7.921875 -6.097656 7.894531 -6.15625 7.84375 -6.15625 C 7.800781 -6.15625 7.769531 -6.148438 7.75 -6.140625 L 4.296875 -4.53125 C 3.929688 -4.269531 3.6875 -4.050781 3.5625 -3.875 C 3.4375 -3.695312 3.375 -3.367188 3.375 -2.890625 Z M 3.375 -2.890625 "/></g></g></g><g fill="#000000" fill-opacity="1"><g transform="translate(268.038446, 168.026694)"><g><path d="M 20.671875 -4.6875 L 20.640625 -7.828125 C 20.640625 -9.109375 20.53125 -10.003906 20.3125 -10.515625 C 20.09375 -11.035156 19.8125 -11.425781 19.46875 -11.6875 C 19.132812 -11.957031 18.679688 -12.09375 18.109375 -12.09375 C 17.546875 -12.09375 16.335938 -11.644531 14.484375 -10.75 C 14.242188 -10.601562 14.117188 -10.460938 14.109375 -10.328125 L 14.109375 -2.328125 C 14.109375 -1.316406 14.644531 -0.738281 15.71875 -0.59375 C 16.175781 -0.519531 16.40625 -0.40625 16.40625 -0.25 C 16.40625 -0.101562 16.359375 -0.0195312 16.265625 0 L 9.625 0 C 9.519531 -0.0195312 9.46875 -0.0859375 9.46875 -0.203125 C 9.46875 -0.390625 9.703125 -0.519531 10.171875 -0.59375 C 11.242188 -0.738281 11.78125 -1.316406 11.78125 -2.328125 L 11.78125 -9.734375 C 11.78125 -11.296875 10.816406 -12.078125 8.890625 -12.078125 C 8.179688 -12.078125 7.203125 -11.660156 5.953125 -10.828125 C 5.640625 -10.617188 5.40625 -10.425781 5.25 -10.25 L 5.25 -2.328125 C 5.25 -1.316406 5.785156 -0.738281 6.859375 -0.59375 C 7.328125 -0.519531 7.5625 -0.40625 7.5625 -0.25 C 7.5625 -0.101562 7.515625 -0.0195312 7.421875 0 L 0.78125 0 C 0.675781 -0.0195312 0.625 -0.0859375 0.625 -0.203125 C 0.625 -0.390625 0.859375 -0.519531 1.328125 -0.59375 C 2.398438 -0.738281 2.9375 -1.304688 2.9375 -2.296875 L 2.9375 -10.875 C 2.9375 -11.289062 2.707031 -11.578125 2.25 -11.734375 C 2.050781 -11.804688 1.835938 -11.863281 1.609375 -11.90625 C 1.378906 -11.945312 1.195312 -11.988281 1.0625 -12.03125 C 0.925781 -12.070312 0.84375 -12.109375 0.8125 -12.140625 C 0.78125 -12.179688 0.765625 -12.257812 0.765625 -12.375 C 0.765625 -12.488281 0.835938 -12.582031 0.984375 -12.65625 L 4.78125 -14.453125 C 4.894531 -14.503906 4.96875 -14.53125 5 -14.53125 C 5.164062 -14.53125 5.25 -14.410156 5.25 -14.171875 L 5.25 -11.703125 C 5.257812 -11.640625 5.296875 -11.609375 5.359375 -11.609375 C 5.429688 -11.609375 5.597656 -11.675781 5.859375 -11.8125 C 6.117188 -11.957031 6.460938 -12.15625 6.890625 -12.40625 C 7.316406 -12.664062 7.878906 -12.960938 8.578125 -13.296875 C 9.285156 -13.640625 10.03125 -13.8125 10.8125 -13.8125 C 12.070312 -13.8125 12.972656 -13.269531 13.515625 -12.1875 C 13.722656 -11.75 13.910156 -11.5625 14.078125 -11.625 C 14.253906 -11.6875 14.519531 -11.804688 14.875 -11.984375 C 15.71875 -12.398438 16.570312 -12.804688 17.4375 -13.203125 C 18.300781 -13.609375 19.015625 -13.8125 19.578125 -13.8125 C 21.878906 -13.8125 23.03125 -11.71875 23.03125 -7.53125 L 22.890625 -3.1875 L 22.890625 -2.328125 C 22.890625 -1.546875 23.273438 -1.035156 24.046875 -0.796875 C 24.378906 -0.691406 24.695312 -0.613281 25 -0.5625 C 25.300781 -0.519531 25.5 -0.476562 25.59375 -0.4375 C 25.6875 -0.40625 25.734375 -0.328125 25.734375 -0.203125 C 25.734375 -0.0859375 25.679688 -0.0195312 25.578125 0 L 18.40625 0 C 18.3125 -0.0195312 18.265625 -0.0859375 18.265625 -0.203125 C 18.265625 -0.390625 18.492188 -0.519531 18.953125 -0.59375 C 20.015625 -0.738281 20.546875 -1.351562 20.546875 -2.4375 C 20.628906 -2.9375 20.671875 -3.6875 20.671875 -4.6875 Z M 20.671875 -4.6875 "/></g></g></g><g fill="#000000" fill-opacity="1"><g transform="translate(296.967781, 168.026694)"><g><path d="M 10.25 -2.453125 C 10.25 -2.191406 10.367188 -1.984375 10.609375 -1.828125 C 10.847656 -1.679688 11.125 -1.609375 11.4375 -1.609375 C 11.757812 -1.609375 12.023438 -1.6875 12.234375 -1.84375 C 12.453125 -2.007812 12.601562 -2.09375 12.6875 -2.09375 C 12.769531 -2.09375 12.8125 -1.984375 12.8125 -1.765625 C 12.8125 -1.554688 12.710938 -1.378906 12.515625 -1.234375 C 11.023438 -0.140625 10.015625 0.40625 9.484375 0.40625 C 8.847656 0.40625 8.332031 -0.253906 7.9375 -1.578125 C 7.90625 -1.679688 7.878906 -1.726562 7.859375 -1.71875 C 6.628906 -0.789062 5.859375 -0.234375 5.546875 -0.046875 C 4.722656 0.421875 3.898438 0.492188 3.078125 0.171875 C 2.265625 -0.140625 1.675781 -0.664062 1.3125 -1.40625 C 1.132812 -1.78125 1.046875 -2.179688 1.046875 -2.609375 C 1.046875 -3.453125 1.359375 -4.117188 1.984375 -4.609375 C 2.609375 -5.109375 3.800781 -5.585938 5.5625 -6.046875 C 6.15625 -6.203125 6.679688 -6.40625 7.140625 -6.65625 C 7.609375 -6.90625 7.851562 -7.0625 7.875 -7.125 C 7.90625 -7.195312 7.921875 -7.265625 7.921875 -7.328125 L 7.921875 -10.1875 C 7.921875 -11.3125 7.484375 -12.097656 6.609375 -12.546875 C 6.328125 -12.703125 5.984375 -12.78125 5.578125 -12.78125 C 5.171875 -12.78125 4.757812 -12.617188 4.34375 -12.296875 C 3.9375 -11.984375 3.734375 -11.535156 3.734375 -10.953125 L 3.8125 -10.359375 C 3.75 -10.242188 3.390625 -10.046875 2.734375 -9.765625 C 2.078125 -9.492188 1.703125 -9.347656 1.609375 -9.328125 C 1.453125 -9.328125 1.375 -9.515625 1.375 -9.890625 C 1.375 -10.273438 1.488281 -10.703125 1.71875 -11.171875 C 1.945312 -11.640625 2.269531 -12.066406 2.6875 -12.453125 C 3.65625 -13.359375 4.765625 -13.8125 6.015625 -13.8125 C 7.265625 -13.8125 8.28125 -13.460938 9.0625 -12.765625 C 9.851562 -12.078125 10.25 -11.257812 10.25 -10.3125 Z M 3.375 -2.890625 C 3.375 -2.410156 3.554688 -1.992188 3.921875 -1.640625 C 4.296875 -1.285156 4.71875 -1.109375 5.1875 -1.109375 C 5.65625 -1.109375 6.226562 -1.3125 6.90625 -1.71875 C 7.582031 -2.125 7.921875 -2.539062 7.921875 -2.96875 L 7.921875 -5.984375 C 7.921875 -6.097656 7.894531 -6.15625 7.84375 -6.15625 C 7.800781 -6.15625 7.769531 -6.148438 7.75 -6.140625 L 4.296875 -4.53125 C 3.929688 -4.269531 3.6875 -4.050781 3.5625 -3.875 C 3.4375 -3.695312 3.375 -3.367188 3.375 -2.890625 Z M 3.375 -2.890625 "/></g></g></g><g fill="#000000" fill-opacity="1"><g transform="translate(211.818558, 207.699507)"><g><path d="M 12.78125 -12.046875 C 14.113281 -12.046875 14.78125 -12.695312 14.78125 -14 C 14.78125 -14.082031 14.816406 -14.125 14.890625 -14.125 L 15.25 -14.125 C 15.332031 -14.125 15.375 -14.082031 15.375 -14 L 15.375 -8.453125 C 15.375 -8.378906 15.332031 -8.34375 15.25 -8.34375 L 14.890625 -8.34375 C 14.816406 -8.34375 14.78125 -8.378906 14.78125 -8.453125 C 14.78125 -9.367188 14.519531 -10 14 -10.34375 C 13.71875 -10.539062 13.320312 -10.640625 12.8125 -10.640625 L 6.9375 -10.640625 C 6.695312 -10.640625 6.578125 -10.503906 6.578125 -10.234375 L 6.578125 -2.578125 C 6.578125 -1.898438 6.984375 -1.398438 7.796875 -1.078125 C 8.609375 -0.753906 9.117188 -0.59375 9.328125 -0.59375 C 9.546875 -0.59375 9.65625 -0.554688 9.65625 -0.484375 L 9.65625 -0.125 C 9.65625 -0.0390625 9.613281 0 9.53125 0 L 1.40625 0 C 1.320312 0 1.28125 -0.0390625 1.28125 -0.125 L 1.28125 -0.484375 C 1.28125 -0.554688 1.363281 -0.59375 1.53125 -0.59375 C 1.695312 -0.59375 1.957031 -0.671875 2.3125 -0.828125 C 2.675781 -0.992188 2.992188 -1.234375 3.265625 -1.546875 C 3.535156 -1.859375 3.671875 -2.238281 3.671875 -2.6875 L 3.671875 -18.765625 C 3.671875 -19.410156 3.332031 -19.875 2.65625 -20.15625 C 2.257812 -20.320312 1.863281 -20.40625 1.46875 -20.40625 L 1.421875 -20.40625 C 1.335938 -20.40625 1.296875 -20.441406 1.296875 -20.515625 L 1.296875 -20.875 C 1.296875 -20.957031 1.335938 -21 1.421875 -21 L 15.453125 -21 C 15.578125 -20.976562 15.664062 -20.945312 15.71875 -20.90625 C 15.78125 -20.875 15.8125 -20.789062 15.8125 -20.65625 L 15.8125 -17.046875 C 15.8125 -16.929688 15.796875 -16.859375 15.765625 -16.828125 C 15.734375 -16.796875 15.671875 -16.78125 15.578125 -16.78125 L 15.40625 -16.78125 C 15.382812 -16.789062 15.316406 -17.0625 15.203125 -17.59375 C 15.085938 -18.125 14.910156 -18.535156 14.671875 -18.828125 C 14.265625 -19.265625 13.800781 -19.503906 13.28125 -19.546875 C 13.070312 -19.566406 12.820312 -19.578125 12.53125 -19.578125 L 6.875 -19.578125 C 6.675781 -19.578125 6.578125 -19.476562 6.578125 -19.28125 L 6.578125 -12.390625 C 6.578125 -12.160156 6.695312 -12.046875 6.9375 -12.046875 Z M 12.78125 -12.046875 "/></g></g></g><g fill="#000000" fill-opacity="1"><g transform="translate(232.335741, 207.699507)"><g><path d="M 10.25 -2.453125 C 10.25 -2.191406 10.367188 -1.984375 10.609375 -1.828125 C 10.847656 -1.679688 11.125 -1.609375 11.4375 -1.609375 C 11.757812 -1.609375 12.023438 -1.6875 12.234375 -1.84375 C 12.453125 -2.007812 12.601562 -2.09375 12.6875 -2.09375 C 12.769531 -2.09375 12.8125 -1.984375 12.8125 -1.765625 C 12.8125 -1.554688 12.710938 -1.378906 12.515625 -1.234375 C 11.023438 -0.140625 10.015625 0.40625 9.484375 0.40625 C 8.847656 0.40625 8.332031 -0.253906 7.9375 -1.578125 C 7.90625 -1.679688 7.878906 -1.726562 7.859375 -1.71875 C 6.628906 -0.789062 5.859375 -0.234375 5.546875 -0.046875 C 4.722656 0.421875 3.898438 0.492188 3.078125 0.171875 C 2.265625 -0.140625 1.675781 -0.664062 1.3125 -1.40625 C 1.132812 -1.78125 1.046875 -2.179688 1.046875 -2.609375 C 1.046875 -3.453125 1.359375 -4.117188 1.984375 -4.609375 C 2.609375 -5.109375 3.800781 -5.585938 5.5625 -6.046875 C 6.15625 -6.203125 6.679688 -6.40625 7.140625 -6.65625 C 7.609375 -6.90625 7.851562 -7.0625 7.875 -7.125 C 7.90625 -7.195312 7.921875 -7.265625 7.921875 -7.328125 L 7.921875 -10.1875 C 7.921875 -11.3125 7.484375 -12.097656 6.609375 -12.546875 C 6.328125 -12.703125 5.984375 -12.78125 5.578125 -12.78125 C 5.171875 -12.78125 4.757812 -12.617188 4.34375 -12.296875 C 3.9375 -11.984375 3.734375 -11.535156 3.734375 -10.953125 L 3.8125 -10.359375 C 3.75 -10.242188 3.390625 -10.046875 2.734375 -9.765625 C 2.078125 -9.492188 1.703125 -9.347656 1.609375 -9.328125 C 1.453125 -9.328125 1.375 -9.515625 1.375 -9.890625 C 1.375 -10.273438 1.488281 -10.703125 1.71875 -11.171875 C 1.945312 -11.640625 2.269531 -12.066406 2.6875 -12.453125 C 3.65625 -13.359375 4.765625 -13.8125 6.015625 -13.8125 C 7.265625 -13.8125 8.28125 -13.460938 9.0625 -12.765625 C 9.851562 -12.078125 10.25 -11.257812 10.25 -10.3125 Z M 3.375 -2.890625 C 3.375 -2.410156 3.554688 -1.992188 3.921875 -1.640625 C 4.296875 -1.285156 4.71875 -1.109375 5.1875 -1.109375 C 5.65625 -1.109375 6.226562 -1.3125 6.90625 -1.71875 C 7.582031 -2.125 7.921875 -2.539062 7.921875 -2.96875 L 7.921875 -5.984375 C 7.921875 -6.097656 7.894531 -6.15625 7.84375 -6.15625 C 7.800781 -6.15625 7.769531 -6.148438 7.75 -6.140625 L 4.296875 -4.53125 C 3.929688 -4.269531 3.6875 -4.050781 3.5625 -3.875 C 3.4375 -3.695312 3.375 -3.367188 3.375 -2.890625 Z M 3.375 -2.890625 "/></g></g></g><g fill="#000000" fill-opacity="1"><g transform="translate(248.654292, 207.699507)"><g><path d="M 1.046875 0 C 0.941406 -0.0195312 0.890625 -0.0859375 0.890625 -0.203125 C 0.890625 -0.390625 1.125 -0.507812 1.59375 -0.5625 C 2.664062 -0.71875 3.203125 -1.285156 3.203125 -2.265625 L 3.203125 -10.140625 C 3.203125 -10.554688 2.972656 -10.84375 2.515625 -11 C 2.316406 -11.070312 2.101562 -11.128906 1.875 -11.171875 C 1.644531 -11.222656 1.460938 -11.265625 1.328125 -11.296875 C 1.191406 -11.335938 1.109375 -11.375 1.078125 -11.40625 C 1.046875 -11.445312 1.03125 -11.523438 1.03125 -11.640625 C 1.03125 -11.753906 1.101562 -11.847656 1.25 -11.921875 L 5.046875 -13.71875 C 5.171875 -13.78125 5.242188 -13.8125 5.265625 -13.8125 C 5.441406 -13.8125 5.53125 -13.691406 5.53125 -13.453125 L 5.53125 -2.265625 C 5.53125 -1.285156 6.066406 -0.71875 7.140625 -0.5625 C 7.597656 -0.507812 7.828125 -0.40625 7.828125 -0.25 C 7.828125 -0.101562 7.78125 -0.0195312 7.6875 0 Z M 4.140625 -17.984375 C 3.734375 -17.984375 3.375 -18.113281 3.0625 -18.375 C 2.75 -18.632812 2.59375 -18.992188 2.59375 -19.453125 C 2.59375 -19.921875 2.738281 -20.285156 3.03125 -20.546875 C 3.332031 -20.816406 3.6875 -20.953125 4.09375 -20.953125 C 4.507812 -20.953125 4.859375 -20.789062 5.140625 -20.46875 C 5.421875 -20.15625 5.5625 -19.816406 5.5625 -19.453125 C 5.5625 -19.085938 5.425781 -18.75 5.15625 -18.4375 C 4.894531 -18.132812 4.554688 -17.984375 4.140625 -17.984375 Z M 4.140625 -17.984375 "/></g></g></g><g fill="#000000" fill-opacity="1"><g transform="translate(260.372215, 207.699507)"><g><path d="M 4.734375 -1.890625 C 4.691406 -1.828125 4.65625 -1.769531 4.625 -1.71875 C 4.59375 -1.675781 4.578125 -1.617188 4.578125 -1.546875 C 4.578125 -1.472656 4.601562 -1.4375 4.65625 -1.4375 L 10.390625 -1.4375 C 11.015625 -1.4375 11.5625 -1.828125 12.03125 -2.609375 C 12.363281 -3.148438 12.585938 -3.476562 12.703125 -3.59375 C 12.816406 -3.71875 12.9375 -3.78125 13.0625 -3.78125 C 13.195312 -3.78125 13.265625 -3.722656 13.265625 -3.609375 L 12.171875 -0.6875 C 12.148438 -0.644531 12.109375 -0.519531 12.046875 -0.3125 C 11.992188 -0.101562 11.894531 0 11.75 0 L 1.25 0 C 1.03125 0 0.921875 -0.0976562 0.921875 -0.296875 C 0.921875 -0.429688 0.953125 -0.554688 1.015625 -0.671875 L 8.5 -10.953125 C 8.601562 -11.085938 8.691406 -11.203125 8.765625 -11.296875 C 8.835938 -11.398438 8.878906 -11.507812 8.890625 -11.625 C 8.910156 -11.75 8.253906 -11.8125 6.921875 -11.8125 L 3.875 -11.8125 C 3.070312 -11.8125 2.5 -11.3125 2.15625 -10.3125 C 2.070312 -10.039062 1.972656 -9.71875 1.859375 -9.34375 C 1.742188 -8.96875 1.601562 -8.78125 1.4375 -8.78125 C 1.332031 -8.78125 1.28125 -8.800781 1.28125 -8.84375 L 2.125 -13.828125 C 2.15625 -13.941406 2.238281 -14 2.375 -14 C 2.507812 -14 2.632812 -13.894531 2.75 -13.6875 C 2.875 -13.488281 3.019531 -13.378906 3.1875 -13.359375 C 3.925781 -13.253906 4.941406 -13.203125 6.234375 -13.203125 C 7.523438 -13.203125 9.617188 -13.234375 12.515625 -13.296875 C 12.609375 -13.265625 12.65625 -13.140625 12.65625 -12.921875 C 12.65625 -12.710938 12.578125 -12.546875 12.421875 -12.421875 Z M 4.734375 -1.890625 "/></g></g></g></svg>